<svg xmlns="http://www.w3.org/2000/svg" viewBox="0 0 64 64" width="64" height="64" role="img" aria-label="فعالية ثقافية">
  <defs>
    <linearGradient id="bg-cult" x1="0" y1="0" x2="1" y2="1">
      <stop offset="0" stop-color="#B8492B"/>
      <stop offset="1" stop-color="#C8842A"/>
    </linearGradient>
  </defs>
  <rect width="64" height="64" rx="12" fill="url(#bg-cult)"/>
  <!-- قناعين مسرح (كوميديا وتراجيديا) -->
  <path d="M14 16 Q 14 12 18 12 L 28 12 Q 32 12 32 16 L 32 28 Q 32 36 24 38 Q 16 36 14 28 Z" fill="#FBF6EE"/>
  <circle cx="20" cy="22" r="2" fill="#2D5A3D"/>
  <circle cx="28" cy="22" r="2" fill="#2D5A3D"/>
  <path d="M20 30 Q 24 34 28 30" stroke="#2D5A3D" stroke-width="1.5" fill="none"/>
  <path d="M50 26 Q 50 22 46 22 L 36 22 Q 32 22 32 26 L 32 38 Q 32 46 40 48 Q 48 46 50 38 Z" fill="#FBF6EE"/>
  <path d="M36 30 L 40 34 M 44 30 L 40 34" stroke="#B8492B" stroke-width="1.5" fill="none"/>
  <path d="M36 42 Q 40 38 44 42" stroke="#B8492B" stroke-width="1.5" fill="none"/>
</svg>
